# xmcd CD database file
#
# Track frame offsets:
#	150
#	16940
#	29487
#	44682
#
# Disc length: 811 seconds
#
# Revision: 1
# Processed by: cddbd v1.5.2PL0 Copyright (c) Steve Scherf et al.
# Submitted via: CDex 1.70beta3
#
DISCID=2d032904
DTITLE=SHAKALABBITS - GO☆SKIP IT
DYEAR=2004
DGENRE=JPop
TTITLE0=GO
TTITLE1=JELLY FISH
TTITLE2=IMPALA
TTITLE3=LOS DIOS
EXTD=YEAR: 2004
EXTT0=
EXTT1=
EXTT2=
EXTT3=
PLAYORDER=
